<svg width="285" height="43" viewBox="0 0 285 43" fill="none" xmlns="http://www.w3.org/2000/svg">
<rect x="0.539062" y="0.890625" width="65" height="42" rx="4" fill="white"/>
<path d="M32.8291 15.1261L29.9272 28.691H26.4182L29.3206 15.1261H32.8291ZM47.5926 23.885L49.4406 18.7909L50.5036 23.885H47.5926ZM51.5076 28.691H54.7536L51.9216 15.1261H48.9256C48.2526 15.1261 47.6846 15.5176 47.4316 16.1213L42.1666 28.691H45.8516L46.5836 26.6653H51.0856L51.5076 28.691ZM42.3496 24.2619C42.3646 20.6817 37.3986 20.4846 37.4326 18.8853C37.4436 18.398 37.9076 17.8811 38.9206 17.7484C39.4246 17.6828 40.8096 17.6325 42.3816 18.356L42.9966 15.4794C42.1526 15.1729 41.0656 14.8779 39.7146 14.8779C36.2466 14.8779 33.8046 16.7219 33.7846 19.3623C33.7626 21.3149 35.5266 22.4046 36.8566 23.0538C38.2236 23.7188 38.6826 24.1447 38.6766 24.7393C38.6676 25.65 37.5866 26.051 36.5776 26.0668C34.8126 26.0948 33.7886 25.5907 32.9729 25.2103L32.3371 28.1826C33.1566 28.5591 34.6696 28.8863 36.2406 28.903C39.9256 28.903 42.3376 27.0818 42.3496 24.2619ZM27.8149 15.1261L22.1296 28.691H18.4197L15.6221 17.8652C15.4521 17.1985 15.3044 16.9546 14.7879 16.6734C13.9452 16.2161 12.552 15.7864 11.3262 15.5202L11.4099 15.1261H17.3807C18.1415 15.1261 18.8263 15.6327 18.9989 16.5089L20.4767 24.3589L24.1282 15.1261H27.8149Z" fill="#1434CB"/>
<rect x="73.5391" y="0.890625" width="65" height="42" rx="4" fill="white"/>
<path d="M110.007 13.8506H100.846V30.3117H110.007V13.8506Z" fill="#FF5F00"/>
<path d="M102.042 21.8906C102.041 20.3053 102.4 18.7404 103.093 17.3145C103.785 15.8885 104.793 14.6389 106.041 13.6601C104.496 12.4462 102.641 11.6913 100.688 11.4817C98.7346 11.2721 96.7626 11.6161 94.9956 12.4747C93.2286 13.3332 91.7386 14.6715 90.6966 16.3365C89.6546 18.0016 89.1016 19.9263 89.1016 21.8906C89.1016 23.855 89.6546 25.7797 90.6966 27.4447C91.7386 29.1098 93.2286 30.4481 94.9956 31.3066C96.7626 32.1651 98.7346 32.5092 100.688 32.2996C102.641 32.09 104.496 31.3351 106.041 30.1212C104.793 29.1424 103.785 27.8927 103.093 26.4668C102.4 25.0408 102.041 23.476 102.042 21.8906Z" fill="#EB001B"/>
<path d="M122.976 21.8906C122.976 23.8549 122.424 25.7796 121.381 27.4447C120.339 29.1098 118.85 30.4481 117.083 31.3066C115.316 32.1651 113.344 32.5092 111.391 32.2996C109.438 32.09 107.583 31.3351 106.039 30.1212C107.285 29.1414 108.292 27.8915 108.984 26.4658C109.677 25.0401 110.037 23.4757 110.037 21.8906C110.037 20.3056 109.677 18.7412 108.984 17.3155C108.292 15.8897 107.285 14.6399 106.039 13.6601C107.583 12.4462 109.438 11.6913 111.391 11.4817C113.344 11.2721 115.316 11.6162 117.083 12.4747C118.85 13.3332 120.339 14.6715 121.381 16.3366C122.424 18.0017 122.976 19.9263 122.976 21.8906Z" fill="#F79E1B"/>
<rect x="146.539" y="0.890625" width="65" height="42" rx="4" fill="white"/>
<path d="M177.6 21.6291V27.7512H175.625V12.6104H180.76C182.01 12.6104 183.195 13.0712 184.117 13.927C185.038 14.7169 185.499 15.9019 185.499 17.1526C185.499 18.4034 185.038 19.5225 184.117 20.3783C183.195 21.2341 182.076 21.6949 180.76 21.6949L177.6 21.6291ZM177.6 14.4536V19.72H180.891C181.615 19.72 182.339 19.4567 182.8 18.93C183.854 17.9426 183.854 16.2968 182.866 15.3094L182.8 15.2436C182.274 14.7169 181.615 14.3878 180.891 14.4536H177.6Z" fill="#5F6368"/>
<path d="M190.042 17.0869C191.49 17.0869 192.609 17.4819 193.465 18.2719C194.321 19.0618 194.716 20.1151 194.716 21.4317V27.7514H192.873V26.3031H192.807C192.017 27.488 190.898 28.0805 189.581 28.0805C188.462 28.0805 187.475 27.7514 186.685 27.0931C185.961 26.4348 185.5 25.5132 185.5 24.5257C185.5 23.4724 185.895 22.6166 186.685 21.9583C187.475 21.3 188.594 21.0367 189.91 21.0367C191.095 21.0367 192.017 21.2342 192.741 21.695V21.2342C192.741 20.5759 192.478 19.9176 191.951 19.5226C191.424 19.0618 190.766 18.7985 190.042 18.7985C188.923 18.7985 188.067 19.2593 187.475 20.1809L185.763 19.1277C186.816 17.7452 188.199 17.0869 190.042 17.0869ZM187.541 24.5915C187.541 25.1182 187.804 25.579 188.199 25.8423C188.66 26.1715 189.186 26.3689 189.713 26.3689C190.503 26.3689 191.293 26.0398 191.885 25.4473C192.544 24.8549 192.873 24.1307 192.873 23.3408C192.28 22.88 191.424 22.6166 190.305 22.6166C189.515 22.6166 188.857 22.8141 188.33 23.2091C187.804 23.5383 187.541 23.9991 187.541 24.5915Z" fill="#5F6368"/>
<path d="M205.38 17.416L198.863 32.3594H196.888L199.324 27.1589L195.045 17.4819H197.151L200.245 24.9206H200.311L203.339 17.4819H205.38V17.416Z" fill="#5F6368"/>
<path d="M169.766 20.3126C169.766 19.7201 169.701 19.1276 169.635 18.5352H161.406V21.8925H166.08C165.882 22.9458 165.29 23.9332 164.368 24.5257V26.6981H167.199C168.845 25.184 169.766 22.9458 169.766 20.3126Z" fill="#4285F4"/>
<path d="M161.407 28.8045C163.777 28.8045 165.752 28.0145 167.2 26.6979L164.369 24.5255C163.579 25.0522 162.592 25.3813 161.407 25.3813C159.169 25.3813 157.194 23.8672 156.535 21.7607H153.639V23.9989C155.153 26.9612 158.115 28.8045 161.407 28.8045Z" fill="#34A853"/>
<path d="M156.534 21.761C156.139 20.7078 156.139 19.5228 156.534 18.4037V16.1655H153.637C152.386 18.6012 152.386 21.4977 153.637 23.9993L156.534 21.761Z" fill="#FBBC04"/>
<path d="M161.407 14.8486C162.658 14.8486 163.843 15.3094 164.764 16.1652L167.266 13.6636C165.686 12.2154 163.579 11.3596 161.473 11.4254C158.181 11.4254 155.153 13.2687 153.705 16.231L156.601 18.4692C157.194 16.3627 159.169 14.8486 161.407 14.8486Z" fill="#EA4335"/>
<rect x="219.539" y="0.890625" width="65" height="42" rx="4" fill="white"/>
<path d="M235.86 14.1213C235.263 14.8285 234.306 15.3863 233.35 15.3066C233.231 14.3504 233.699 13.3344 234.247 12.7068C234.844 11.9797 235.89 11.4617 236.737 11.4219C236.836 12.418 236.448 13.3941 235.86 14.1213ZM236.727 15.4958C235.342 15.4162 234.157 16.2827 233.499 16.2827C232.832 16.2827 231.826 15.5357 230.73 15.5556C229.306 15.5755 227.981 16.3823 227.254 17.6673C225.76 20.2372 226.866 24.0422 228.31 26.1339C229.017 27.1698 229.864 28.3054 230.979 28.2655C232.035 28.2257 232.454 27.5782 233.729 27.5782C235.013 27.5782 235.382 28.2655 236.498 28.2456C237.653 28.2257 238.38 27.2097 239.087 26.1738C239.894 24.9984 240.223 23.8529 240.243 23.7931C240.223 23.7732 238.012 22.9266 237.992 20.3766C237.972 18.245 239.735 17.229 239.815 17.1692C238.818 15.6951 237.265 15.5357 236.727 15.4958ZM244.725 12.6072V28.136H247.136V22.8269H250.473C253.521 22.8269 255.662 20.7352 255.662 17.7071C255.662 14.6791 253.56 12.6072 250.552 12.6072H244.725ZM247.136 14.6392H249.915C252.007 14.6392 253.202 15.7548 253.202 17.7171C253.202 19.6794 252.007 20.8049 249.905 20.8049H247.136V14.6392ZM260.065 28.2556C261.579 28.2556 262.983 27.4886 263.621 26.2734H263.671V28.136H265.902V20.4065C265.902 18.1653 264.109 16.721 261.35 16.721C258.79 16.721 256.897 18.1852 256.828 20.1973H258.999C259.178 19.2411 260.065 18.6136 261.28 18.6136C262.754 18.6136 263.581 19.3008 263.581 20.5659V21.4225L260.573 21.6018C257.774 21.7711 256.26 22.9166 256.26 24.9087C256.26 26.9208 257.824 28.2556 260.065 28.2556ZM260.712 26.4128C259.427 26.4128 258.611 25.7953 258.611 24.849C258.611 23.8728 259.397 23.3051 260.901 23.2154L263.581 23.0461V23.9226C263.581 25.3769 262.346 26.4128 260.712 26.4128ZM268.88 32.3594C271.231 32.3594 272.336 31.4629 273.303 28.7436L277.536 16.8704H275.086L272.247 26.0443H272.197L269.358 16.8704H266.838L270.922 28.1759L270.703 28.8632C270.334 30.0286 269.737 30.4768 268.671 30.4768C268.482 30.4768 268.113 30.4569 267.964 30.437V32.2996C268.103 32.3395 268.701 32.3594 268.88 32.3594Z" fill="#242424"/>
</svg>
