<svg width="252" height="24" viewBox="0 0 252 24" fill="none" xmlns="http://www.w3.org/2000/svg">
<rect width="252" height="24" fill="#F5F5F5"/>
<path d="M-1164 -856H3640V-872H-1164V-856ZM3634 -862V3889H3650V-862H3634ZM3640 3883H-1164V3899H3640V3883ZM-1158 3889V-862H-1174V3889H-1158ZM-1164 3883C-1160.69 3883 -1158 3885.69 -1158 3889H-1174C-1174 3894.52 -1169.52 3899 -1164 3899V3883ZM3634 3889C3634 3885.69 3636.69 3883 3640 3883V3899C3645.52 3899 3650 3894.52 3650 3889H3634ZM3640 -856C3636.69 -856 3634 -858.686 3634 -862H3650C3650 -867.523 3645.52 -872 3640 -872V-856ZM-1164 -872C-1169.52 -872 -1174 -867.522 -1174 -862H-1158C-1158 -858.687 -1160.69 -856 -1164 -856V-872Z" fill="#9747FF"/>
<g clip-path="url(#clip0_0_1)">
<rect width="1440" height="4475" transform="translate(-1006 -704)" fill="white"/>
<g style="mix-blend-mode:luminosity">
<rect x="0.5" y="0.5" width="34" height="23" rx="3.5" stroke="#E6E6E6"/>
<path fill-rule="evenodd" clip-rule="evenodd" d="M9.90001 15.2412H8.34439C8.23794 15.2412 8.1474 15.3186 8.1308 15.4236L7.50163 19.4127C7.48913 19.4914 7.55009 19.5624 7.62993 19.5624H8.37259C8.47905 19.5624 8.56958 19.485 8.58618 19.3797L8.75588 18.3038C8.77225 18.1985 8.863 18.1212 8.96924 18.1212H9.46169C10.4864 18.1212 11.0778 17.6253 11.2323 16.6427C11.3019 16.2128 11.2353 15.875 11.0339 15.6384C10.8129 15.3787 10.4206 15.2412 9.90001 15.2412ZM10.0795 16.6982C9.99443 17.2564 9.56792 17.2564 9.15553 17.2564H8.92078L9.08547 16.2138C9.09525 16.1509 9.14984 16.1045 9.21353 16.1045H9.32112C9.60204 16.1045 9.86706 16.1045 10.004 16.2646C10.0856 16.3602 10.1106 16.5021 10.0795 16.6982ZM14.5501 16.6803H13.8052C13.7417 16.6803 13.6869 16.7267 13.6771 16.7897L13.6441 16.9981L13.592 16.9226C13.4308 16.6885 13.0712 16.6103 12.7122 16.6103C11.889 16.6103 11.1859 17.2337 11.049 18.1084C10.9778 18.5446 11.079 18.9617 11.3264 19.2527C11.5535 19.5202 11.8783 19.6316 12.2647 19.6316C12.928 19.6316 13.2959 19.2051 13.2959 19.2051L13.2626 19.4122C13.2501 19.4913 13.3111 19.5623 13.3904 19.5623H14.0615C14.1682 19.5623 14.2582 19.4849 14.2751 19.3796L14.6777 16.83C14.6904 16.7515 14.6297 16.6803 14.5501 16.6803ZM13.5117 18.1302C13.4398 18.5557 13.102 18.8414 12.6713 18.8414C12.455 18.8414 12.282 18.7721 12.1711 18.6406C12.061 18.5101 12.0191 18.3242 12.0541 18.1172C12.1213 17.6952 12.4647 17.4003 12.889 17.4003C13.1004 17.4003 13.2724 17.4705 13.3857 17.6031C13.4992 17.7371 13.5442 17.9241 13.5117 18.1302ZM17.769 16.6802H18.5176C18.6224 16.6802 18.6836 16.7977 18.624 16.8837L16.1342 20.4776C16.0939 20.5359 16.0275 20.5705 15.9565 20.5705H15.2089C15.1036 20.5705 15.0421 20.452 15.1031 20.3657L15.8783 19.2714L15.0538 16.8516C15.0253 16.7675 15.0874 16.6802 15.1769 16.6802H15.9124C16.008 16.6802 16.0923 16.7429 16.1199 16.8344L16.5575 18.2958L17.59 16.775C17.6304 16.7156 17.6976 16.6802 17.769 16.6802Z" fill="#253B80"/>
<path fill-rule="evenodd" clip-rule="evenodd" d="M25.8851 19.4129L26.5236 15.3509C26.5334 15.2878 26.588 15.2414 26.6515 15.2412H27.3702C27.4496 15.2412 27.5105 15.3124 27.498 15.3911L26.8684 19.38C26.852 19.4852 26.7615 19.5626 26.6548 19.5626H26.0129C25.9336 19.5626 25.8726 19.4916 25.8851 19.4129ZM20.9958 15.2414H19.4399C19.3337 15.2414 19.2431 15.3188 19.2265 15.4238L18.5973 19.4129C18.5848 19.4916 18.6458 19.5626 18.7252 19.5626H19.5236C19.5978 19.5626 19.6612 19.5085 19.6728 19.4348L19.8513 18.3041C19.8678 18.1987 19.9585 18.1214 20.0647 18.1214H20.5569C21.5819 18.1214 22.1731 17.6255 22.3278 16.6429C22.3976 16.213 22.3305 15.8752 22.1292 15.6386C21.9083 15.3789 21.5164 15.2414 20.9958 15.2414ZM21.1752 16.6984C21.0904 17.2566 20.6639 17.2566 20.2512 17.2566H20.0167L20.1817 16.2141C20.1914 16.1511 20.2456 16.1047 20.3094 16.1047H20.417C20.6978 16.1047 20.963 16.1047 21.0999 16.2648C21.1816 16.3604 21.2064 16.5023 21.1752 16.6984ZM25.6455 16.6805H24.901C24.837 16.6805 24.7827 16.7269 24.7731 16.79L24.7402 16.9983L24.6879 16.9228C24.5266 16.6887 24.1672 16.6105 23.8083 16.6105C22.985 16.6105 22.2822 17.234 22.1452 18.1086C22.0743 18.5448 22.175 18.962 22.4225 19.2529C22.65 19.5204 22.9744 19.6319 23.3608 19.6319C24.0241 19.6319 24.3919 19.2053 24.3919 19.2053L24.3587 19.4124C24.3462 19.4915 24.4071 19.5625 24.487 19.5625H25.1578C25.264 19.5625 25.3545 19.4851 25.3711 19.3799L25.774 16.8302C25.7863 16.7517 25.7254 16.6805 25.6455 16.6805ZM24.6071 18.1304C24.5357 18.556 24.1975 18.8416 23.7666 18.8416C23.5507 18.8416 23.3775 18.7723 23.2664 18.6408C23.1563 18.5103 23.1149 18.3244 23.1496 18.1174C23.217 17.6954 23.5601 17.4005 23.9843 17.4005C24.1959 17.4005 24.3678 17.4707 24.4811 17.6033C24.595 17.7373 24.6401 17.9243 24.6071 18.1304Z" fill="#179BD7"/>
<path d="M15.6566 13.8138L15.8479 12.5991L15.4219 12.5892H13.3877L14.8014 3.62534C14.8057 3.59828 14.82 3.57305 14.8409 3.55513C14.8617 3.53722 14.8884 3.52734 14.9162 3.52734H18.3462C19.485 3.52734 20.2708 3.7643 20.6811 4.232C20.8734 4.45141 20.9959 4.68068 21.0552 4.933C21.1173 5.19776 21.1184 5.51406 21.0577 5.89985L21.0533 5.92801V6.1752L21.2457 6.28418C21.4077 6.37011 21.5363 6.46848 21.6351 6.58111C21.7997 6.7687 21.9061 7.00712 21.9511 7.28978C21.9975 7.5805 21.9821 7.92643 21.9061 8.31807C21.8183 8.76859 21.6765 9.16096 21.4849 9.48202C21.3086 9.77785 21.084 10.0232 20.8175 10.2134C20.563 10.394 20.2606 10.5312 19.9187 10.619C19.5873 10.7052 19.2096 10.7488 18.7953 10.7488H18.5283C18.3375 10.7488 18.152 10.8175 18.0065 10.9408C17.8607 11.0665 17.764 11.2383 17.7344 11.4263L17.7143 11.5357L17.3764 13.6767L17.3611 13.7553C17.3571 13.7802 17.3501 13.7927 17.3399 13.8011C17.3308 13.8087 17.3176 13.8138 17.3048 13.8138H15.6566Z" fill="#253B80"/>
<path d="M21.4279 5.95703C21.4177 6.02248 21.406 6.0894 21.3928 6.15815C20.9404 8.48056 19.3929 9.28286 17.4164 9.28286H16.4101C16.1684 9.28286 15.9647 9.45838 15.927 9.6968L15.4118 12.9645L15.2659 13.8907C15.2413 14.0473 15.3621 14.1884 15.52 14.1884H17.3049C17.5163 14.1884 17.6958 14.0348 17.729 13.8264L17.7466 13.7357L18.0827 11.603L18.1043 11.4861C18.1371 11.2769 18.317 11.1234 18.5284 11.1234H18.7954C20.5246 11.1234 21.8784 10.4213 22.2741 8.38951C22.4394 7.54077 22.3538 6.8321 21.9164 6.33367C21.7841 6.18338 21.6199 6.05868 21.4279 5.95703Z" fill="#179BD7"/>
<path d="M20.9545 5.7688C20.8854 5.74869 20.814 5.7304 20.7409 5.71395C20.6674 5.69787 20.592 5.6836 20.5146 5.67117C20.2432 5.62729 19.9459 5.60645 19.6274 5.60645H16.939C16.8728 5.60645 16.8099 5.62143 16.7536 5.6485C16.6296 5.7081 16.5375 5.82549 16.5152 5.96919L15.9432 9.59159L15.9268 9.69727C15.9644 9.45884 16.1681 9.28332 16.4098 9.28332H17.4161C19.3927 9.28332 20.9402 8.48066 21.3926 6.15862C21.406 6.08987 21.4174 6.02295 21.4276 5.9575C21.3132 5.89679 21.1892 5.84487 21.0557 5.80061C21.0229 5.78965 20.9889 5.77905 20.9545 5.7688Z" fill="#222D65"/>
<path d="M16.5156 5.96866C16.5379 5.82495 16.6301 5.70757 16.754 5.64833C16.8107 5.62126 16.8733 5.60627 16.9394 5.60627H19.6279C19.9464 5.60627 20.2437 5.62712 20.5149 5.671C20.5925 5.68343 20.6679 5.6977 20.7414 5.71378C20.8145 5.73024 20.8858 5.74853 20.9549 5.76863C20.9893 5.77887 21.0233 5.78947 21.0565 5.80008C21.19 5.84433 21.314 5.89662 21.4284 5.95696C21.5631 5.09871 21.4274 4.51437 20.9634 3.98523C20.4518 3.40271 19.5284 3.15332 18.3469 3.15332H14.9168C14.6755 3.15332 14.4697 3.32884 14.4323 3.56763L13.0037 12.6236C12.9755 12.8028 13.1137 12.9645 13.2943 12.9645H15.412L15.9437 9.59105L16.5156 5.96866Z" fill="#253B80"/>
</g>
<g style="mix-blend-mode:luminosity">
<rect x="43.5" y="0.5" width="34" height="23" rx="3.5" stroke="#E6E6E6"/>
<path fill-rule="evenodd" clip-rule="evenodd" d="M53.6253 16.2582H51.5049L49.915 10.1924C49.8395 9.91334 49.6792 9.66667 49.4435 9.5504C48.8553 9.25823 48.2071 9.0257 47.5 8.90843V8.6749H50.9157C51.3871 8.6749 51.7406 9.0257 51.7996 9.43313L52.6245 13.8086L54.7438 8.6749H56.8052L53.6253 16.2582ZM57.9838 16.2582H55.9813L57.6302 8.6749H59.6327L57.9838 16.2582ZM62.2234 10.7757C62.2823 10.3673 62.6359 10.1337 63.0483 10.1337C63.6965 10.0751 64.4026 10.1924 64.9919 10.4835L65.3454 8.85081C64.7562 8.61727 64.108 8.5 63.5198 8.5C61.5762 8.5 60.162 9.55041 60.162 11.0082C60.162 12.1173 61.1637 12.6996 61.8708 13.0504C62.6359 13.4002 62.9305 13.6338 62.8716 13.9835C62.8716 14.5082 62.2823 14.7418 61.6941 14.7418C60.9869 14.7418 60.2798 14.5669 59.6327 14.2747L59.2791 15.9085C59.9862 16.1996 60.7512 16.3169 61.4584 16.3169C63.6376 16.3745 64.9919 15.3251 64.9919 13.75C64.9919 11.7665 62.2234 11.6502 62.2234 10.7757ZM72 16.2582L70.41 8.6749H68.7022C68.3486 8.6749 67.9951 8.90843 67.8772 9.25823L64.9329 16.2582H66.9943L67.4058 15.1502H69.9386L70.1743 16.2582H72ZM68.9968 10.7171L69.585 13.5751H67.9361L68.9968 10.7171Z" fill="#172B85"/>
</g>
<g style="mix-blend-mode:luminosity">
<rect x="86.5" y="0.5" width="34" height="23" rx="3.5" stroke="#E6E6E6"/>
<path fill-rule="evenodd" clip-rule="evenodd" d="M103.75 17.1569C102.558 18.1852 101.013 18.806 99.3238 18.806C95.5551 18.806 92.5 15.7154 92.5 11.903C92.5 8.09057 95.5551 5 99.3238 5C101.013 5 102.558 5.62075 103.75 6.64903C104.942 5.62075 106.487 5 108.176 5C111.945 5 115 8.09057 115 11.903C115 15.7154 111.945 18.806 108.176 18.806C106.487 18.806 104.942 18.1852 103.75 17.1569Z" fill="#ED0006"/>
<path fill-rule="evenodd" clip-rule="evenodd" d="M103.75 17.1569C105.217 15.8908 106.148 14.0068 106.148 11.903C106.148 9.79917 105.217 7.91517 103.75 6.64903C104.942 5.62075 106.487 5 108.176 5C111.945 5 115 8.09057 115 11.903C115 15.7154 111.945 18.806 108.176 18.806C106.487 18.806 104.942 18.1852 103.75 17.1569Z" fill="#F9A000"/>
<path fill-rule="evenodd" clip-rule="evenodd" d="M103.75 6.64941C105.217 7.91555 106.148 9.79954 106.148 11.9033C106.148 14.0071 105.217 15.8911 103.75 17.1573C102.283 15.8911 101.353 14.0071 101.353 11.9033C101.353 9.79954 102.283 7.91555 103.75 6.64941Z" fill="#FF5E00"/>
</g>
<g style="mix-blend-mode:luminosity">
<rect x="129.5" y="0.5" width="34" height="23" rx="3.5" stroke="#E6E6E6"/>
<path fill-rule="evenodd" clip-rule="evenodd" d="M145.53 15.7585V12.7375H147.089C147.728 12.7375 148.267 12.5234 148.707 12.1012L148.812 11.9942C149.615 11.12 149.562 9.75817 148.707 8.94941C148.279 8.52125 147.693 8.28932 147.089 8.30122H144.586V15.7585H145.53ZM145.53 11.8217V9.21703H147.113C147.453 9.21703 147.775 9.34786 148.015 9.58573C148.525 10.0853 148.537 10.9178 148.045 11.4352C147.804 11.6909 147.464 11.8336 147.113 11.8217H145.53ZM153.214 11.0546C152.81 10.6799 152.259 10.4896 151.561 10.4896C150.664 10.4896 149.99 10.8227 149.545 11.4827L150.377 12.012C150.682 11.5601 151.098 11.3341 151.626 11.3341C151.96 11.3341 152.282 11.459 152.534 11.6849C152.78 11.899 152.921 12.2083 152.921 12.5353V12.7554C152.558 12.5532 152.1 12.4461 151.538 12.4461C150.881 12.4461 150.354 12.6007 149.961 12.9159C149.568 13.2311 149.369 13.6474 149.369 14.1766C149.357 14.6583 149.562 15.1162 149.926 15.4254C150.295 15.7585 150.764 15.925 151.315 15.925C151.966 15.925 152.481 15.6336 152.874 15.0508H152.915V15.7585H153.818V12.6126C153.818 11.9525 153.619 11.4292 153.214 11.0546ZM150.653 14.8189C150.459 14.6761 150.342 14.4442 150.342 14.1944C150.342 13.9149 150.471 13.683 150.723 13.4987C150.981 13.3143 151.304 13.2192 151.685 13.2192C152.212 13.2132 152.623 13.3322 152.916 13.57C152.916 13.9744 152.757 14.3253 152.447 14.6226C152.165 14.9081 151.784 15.0686 151.386 15.0686C151.122 15.0746 150.864 14.9854 150.653 14.8189ZM155.846 18.0004L159 10.6562H157.974L156.514 14.3194H156.497L155.002 10.6562H153.976L156.045 15.4314L154.873 18.0004H155.846Z" fill="#3C4043"/>
<path d="M142.272 12.0831C142.272 11.7917 142.249 11.5003 142.202 11.2148H138.222V12.8621H140.502C140.408 13.3914 140.103 13.8671 139.658 14.1644V15.2349H141.018C141.815 14.4915 142.272 13.3914 142.272 12.0831Z" fill="#4285F4"/>
<path d="M138.222 16.2696C139.359 16.2696 140.321 15.889 141.018 15.2349L139.658 14.1645C139.277 14.4261 138.791 14.5748 138.222 14.5748C137.12 14.5748 136.188 13.8195 135.854 12.8086H134.453V13.9147C135.168 15.3598 136.628 16.2696 138.222 16.2696Z" fill="#34A853"/>
<path d="M135.854 12.8088C135.678 12.2796 135.678 11.7027 135.854 11.1675V10.0674H134.453C133.849 11.2746 133.849 12.7018 134.453 13.909L135.854 12.8088Z" fill="#FBBC04"/>
<path d="M138.222 9.40114C138.826 9.38925 139.406 9.62117 139.84 10.0434L141.047 8.81836C140.28 8.09285 139.271 7.69442 138.222 7.70631C136.628 7.70631 135.168 8.62211 134.453 10.0672L135.854 11.1733C136.188 10.1564 137.12 9.40114 138.222 9.40114Z" fill="#EA4335"/>
</g>
<g style="mix-blend-mode:luminosity">
<rect x="172.5" y="0.5" width="34" height="23" rx="3.5" stroke="#E6E6E6"/>
<path fill-rule="evenodd" clip-rule="evenodd" d="M180.346 8.93296C180.816 8.97261 181.286 8.69506 181.58 8.34316C181.869 7.98135 182.06 7.49563 182.011 7C181.595 7.01983 181.081 7.27755 180.787 7.63936C180.518 7.95161 180.287 8.45715 180.346 8.93296ZM185.938 15.3167V7.58981H188.802C190.281 7.58981 191.314 8.62072 191.314 10.1274C191.314 11.6342 190.261 12.675 188.763 12.675H187.123V15.3167H185.938ZM182.006 9.02714C181.592 9.00301 181.214 9.1532 180.909 9.27451C180.712 9.35257 180.546 9.41868 180.42 9.41868C180.278 9.41868 180.104 9.34904 179.91 9.27085C179.655 9.16839 179.364 9.05125 179.058 9.05687C178.358 9.06679 177.707 9.46825 177.35 10.1076C176.615 11.3863 177.159 13.2796 177.869 14.3205C178.216 14.8359 178.632 15.4009 179.181 15.3811C179.422 15.3719 179.596 15.2974 179.775 15.2202C179.982 15.1314 180.197 15.0391 180.532 15.0391C180.856 15.0391 181.061 15.129 181.259 15.2152C181.446 15.2973 181.626 15.376 181.893 15.3712C182.461 15.3613 182.819 14.8557 183.166 14.3403C183.542 13.7871 183.706 13.2471 183.731 13.1652L183.734 13.1557C183.734 13.1551 183.729 13.153 183.721 13.1492C183.596 13.0911 182.637 12.6469 182.628 11.4557C182.619 10.4559 183.388 9.94937 183.509 9.86963L183.509 9.86962C183.517 9.86477 183.522 9.8615 183.524 9.85979C183.034 9.12626 182.27 9.04696 182.006 9.02714ZM193.478 15.3761C194.222 15.3761 194.913 14.9945 195.226 14.3898H195.25V15.3166H196.347V11.4706C196.347 10.3554 195.466 9.63672 194.11 9.63672C192.851 9.63672 191.921 10.3653 191.887 11.3665H192.954C193.042 10.8907 193.478 10.5784 194.075 10.5784C194.8 10.5784 195.206 10.9204 195.206 11.5499V11.9761L193.728 12.0653C192.352 12.1496 191.608 12.7195 191.608 13.7108C191.608 14.712 192.376 15.3761 193.478 15.3761ZM193.796 14.4592C193.165 14.4592 192.763 14.1519 192.763 13.6811C192.763 13.1954 193.15 12.9129 193.889 12.8683L195.206 12.784V13.2202C195.206 13.9438 194.599 14.4592 193.796 14.4592ZM199.985 15.619C199.51 16.9721 198.967 17.4181 197.811 17.4181C197.723 17.4181 197.429 17.4082 197.361 17.3884V16.4616C197.434 16.4715 197.615 16.4814 197.708 16.4814C198.232 16.4814 198.526 16.2584 198.707 15.6785L198.815 15.3365L196.807 9.71108H198.046L199.442 14.2758H199.466L200.862 9.71108H202.066L199.985 15.619ZM187.123 8.60087H188.489C189.517 8.60087 190.104 9.15598 190.104 10.1324C190.104 11.1088 189.517 11.6688 188.484 11.6688H187.123V8.60087Z" fill="#262A2C"/>
</g>
<g style="mix-blend-mode:luminosity">
<path d="M219.607 0.5H247.393C249.659 0.5 251.5 2.34551 251.5 4.62648V19.3735C251.5 21.6545 249.659 23.5 247.393 23.5H219.607C217.341 23.5 215.5 21.6545 215.5 19.3735V4.62648C215.5 2.34551 217.341 0.5 219.607 0.5Z" stroke="#E6E6E6"/>
<path d="M237.13 8.34635V15.6353H236.141C235.716 12.0301 233.461 9.76583 229.863 9.3304V8.33763H237.13V8.34635ZM227.305 5.77734V11.8298H228.588C231.953 11.8298 233.661 13.5453 233.661 16.933V18.2217H239.688V5.77734H227.305Z" fill="#4EA524"/>
<path d="M232.144 13.3447H227.305V18.2129H232.144V13.3447Z" fill="#1A1A18"/>
</g>
</g>
<defs>
<clipPath id="clip0_0_1">
<rect width="1440" height="4475" fill="white" transform="translate(-1006 -704)"/>
</clipPath>
</defs>
</svg>
