<svg width="216" height="34" viewBox="0 0 216 34" fill="none" xmlns="http://www.w3.org/2000/svg">
<rect x="0.5" y="0.5" width="47" height="33" rx="3.5" stroke="#E6E6E6"/>
<path fill-rule="evenodd" clip-rule="evenodd" d="M14.5008 21.9143H11.5582L9.35154 13.3808C9.24681 12.9883 9.02442 12.6413 8.6973 12.4777C7.88094 12.0667 6.98136 11.7396 6 11.5746V11.2461H10.7404C11.3946 11.2461 11.8853 11.7396 11.9671 12.3127L13.112 18.4682L16.0532 11.2461H18.9141L14.5008 21.9143ZM20.5525 21.9143H17.7734L20.0618 11.2461H22.8409L20.5525 21.9143ZM26.4299 14.2015C26.5117 13.6269 27.0023 13.2984 27.5748 13.2984C28.4744 13.2159 29.4543 13.3808 30.2721 13.7905L30.7628 11.4935C29.945 11.165 29.0454 11 28.229 11C25.5317 11 23.569 12.4777 23.569 14.5286C23.569 16.0888 24.9593 16.908 25.9406 17.4015C27.0023 17.8936 27.4112 18.2222 27.3295 18.7143C27.3295 19.4524 26.5117 19.781 25.6953 19.781C24.7139 19.781 23.7326 19.5349 22.8344 19.1239L22.3438 21.4222C23.3251 21.8318 24.3868 21.9968 25.3682 21.9968C28.3926 22.0779 30.2721 20.6016 30.2721 18.3857C30.2721 15.5953 26.4299 15.4317 26.4299 14.2015ZM39.9993 21.9143L37.7926 11.2461H35.4225C34.9318 11.2461 34.4411 11.5746 34.2775 12.0667L30.1914 21.9143H33.0523L33.6233 20.3556H37.1384L37.4655 21.9143H39.9993ZM35.8353 14.119L36.6517 18.1397H34.3633L35.8353 14.119Z" fill="#172B85"/>
<rect x="56.5" y="0.5" width="47" height="33" rx="3.5" stroke="#E6E6E6"/>
<path fill-rule="evenodd" clip-rule="evenodd" d="M79.9993 24.2312C78.3577 25.646 76.2284 26.5 73.9016 26.5C68.7093 26.5 64.5 22.2467 64.5 17C64.5 11.7533 68.7093 7.5 73.9016 7.5C76.2284 7.5 78.3577 8.35404 79.9993 9.76882C81.6409 8.35404 83.7702 7.5 86.097 7.5C91.2893 7.5 95.4986 11.7533 95.4986 17C95.4986 22.2467 91.2893 26.5 86.097 26.5C83.7702 26.5 81.6409 25.646 79.9993 24.2312Z" fill="#ED0006"/>
<path fill-rule="evenodd" clip-rule="evenodd" d="M80 24.2312C82.0219 22.4887 83.304 19.8956 83.304 17C83.304 14.1044 82.0219 11.5113 80 9.76882C81.6416 8.35404 83.7709 7.5 86.0977 7.5C91.29 7.5 95.4993 11.7533 95.4993 17C95.4993 22.2467 91.29 26.5 86.0977 26.5C83.7709 26.5 81.6416 25.646 80 24.2312Z" fill="#F9A000"/>
<path fill-rule="evenodd" clip-rule="evenodd" d="M80.0032 24.2312C82.0251 22.4887 83.3072 19.8956 83.3072 17C83.3072 14.1043 82.0251 11.5113 80.0032 9.7688C77.9813 11.5113 76.6992 14.1043 76.6992 17C76.6992 19.8956 77.9813 22.4887 80.0032 24.2312Z" fill="#FF5E00"/>
<rect x="112.5" y="0.5" width="47" height="33" rx="3.5" stroke="#E6E6E6"/>
<path fill-rule="evenodd" clip-rule="evenodd" d="M134.682 20.951V16.8425H136.802C137.671 16.8425 138.405 16.5513 139.003 15.9771L139.146 15.8315C140.238 14.6426 140.166 12.7906 139.003 11.6907C138.421 11.1084 137.623 10.793 136.802 10.8091H133.398V20.951H134.682ZM134.68 15.597V12.0546H136.832C137.295 12.0546 137.733 12.2325 138.06 12.556C138.754 13.2354 138.77 14.3677 138.1 15.0713C137.773 15.419 137.311 15.6131 136.832 15.597H134.68ZM145.132 14.5537C144.582 14.0442 143.833 13.7854 142.884 13.7854C141.665 13.7854 140.748 14.2383 140.142 15.136L141.274 15.8558C141.689 15.2412 142.255 14.9338 142.972 14.9338C143.426 14.9338 143.865 15.1037 144.208 15.411C144.543 15.7021 144.734 16.1227 144.734 16.5675V16.8668C144.24 16.5918 143.618 16.4462 142.853 16.4462C141.96 16.4462 141.242 16.6565 140.708 17.0851C140.174 17.5138 139.903 18.0799 139.903 18.7997C139.887 19.4548 140.166 20.0775 140.66 20.4981C141.163 20.951 141.8 21.1774 142.55 21.1774C143.434 21.1774 144.136 20.7812 144.67 19.9886H144.726V20.951H145.954V16.6727C145.954 15.7749 145.682 15.0632 145.132 14.5537ZM141.649 19.6731C141.386 19.479 141.227 19.1636 141.227 18.8239C141.227 18.4438 141.402 18.1284 141.745 17.8777C142.096 17.6269 142.534 17.4975 143.052 17.4975C143.77 17.4894 144.328 17.6512 144.727 17.9747C144.727 18.5247 144.511 19.0018 144.089 19.4062C143.706 19.7944 143.188 20.0128 142.646 20.0128C142.287 20.0209 141.936 19.8995 141.649 19.6731ZM148.715 24L153.004 14.0118H151.609L149.624 18.9938H149.6L147.567 14.0118H146.172L148.986 20.5062L147.392 24H148.715Z" fill="#3C4043"/>
<path d="M130.251 15.9528C130.251 15.5565 130.219 15.1602 130.155 14.772H124.742V17.0123H127.843C127.716 17.7321 127.301 18.3791 126.695 18.7835V20.2392H128.545C129.629 19.2283 130.251 17.7321 130.251 15.9528Z" fill="#4285F4"/>
<path d="M124.743 21.6464C126.29 21.6464 127.597 21.1288 128.546 20.2392L126.696 18.7834C126.178 19.1393 125.516 19.3415 124.743 19.3415C123.244 19.3415 121.977 18.3143 121.522 16.9395H119.617V18.4437C120.59 20.409 122.575 21.6464 124.743 21.6464Z" fill="#34A853"/>
<path d="M121.521 16.9395C121.282 16.2197 121.282 15.4352 121.521 14.7073V13.2111H119.616C118.795 14.8529 118.795 16.7939 119.616 18.4357L121.521 16.9395Z" fill="#FBBC04"/>
<path d="M124.743 12.3053C125.564 12.2891 126.353 12.6046 126.943 13.1788L128.585 11.5127C127.541 10.526 126.17 9.98418 124.743 10.0004C122.575 10.0004 120.59 11.2458 119.617 13.2111L121.522 14.7154C121.977 13.3324 123.244 12.3053 124.743 12.3053Z" fill="#EA4335"/>
<rect x="168.5" y="0.5" width="47" height="33" rx="3.5" stroke="#E6E6E6"/>
<path fill-rule="evenodd" clip-rule="evenodd" d="M179.54 12.5975C180.177 12.6508 180.815 12.2778 181.214 11.805C181.605 11.3187 181.864 10.666 181.798 10C181.233 10.0266 180.536 10.373 180.138 10.8592C179.772 11.2788 179.46 11.9581 179.54 12.5975ZM187.125 21.176V10.7926H191.01C193.016 10.7926 194.417 12.1779 194.417 14.2027C194.417 16.2274 192.989 17.6261 190.957 17.6261H188.732V21.176H187.125ZM181.79 12.7241C181.229 12.6917 180.716 12.8935 180.302 13.0565C180.036 13.1614 179.81 13.2502 179.638 13.2502C179.446 13.2502 179.211 13.1567 178.947 13.0516C178.602 12.9139 178.206 12.7565 177.792 12.764C176.842 12.7774 175.959 13.3168 175.474 14.176C174.478 15.8944 175.215 18.4386 176.178 19.8373C176.65 20.53 177.214 21.2893 177.958 21.2626C178.285 21.2502 178.521 21.1501 178.764 21.0464C179.045 20.9271 179.336 20.8031 179.791 20.8031C180.23 20.8031 180.509 20.9238 180.776 21.0397C181.031 21.15 181.275 21.2558 181.637 21.2493C182.408 21.236 182.893 20.5566 183.364 19.864C183.873 19.1205 184.097 18.395 184.131 18.2849L184.135 18.2721C184.134 18.2713 184.128 18.2684 184.116 18.2634L184.116 18.2633C183.946 18.1852 182.646 17.5883 182.634 15.9876C182.621 14.6441 183.665 13.9634 183.829 13.8562L183.829 13.8562L183.829 13.8561C183.839 13.8497 183.846 13.8453 183.849 13.843C183.185 12.8573 182.149 12.7507 181.79 12.7241ZM197.353 21.2559C198.363 21.2559 199.299 20.7431 199.724 19.9305H199.758V21.176H201.245V16.0076C201.245 14.509 200.05 13.5433 198.21 13.5433C196.503 13.5433 195.241 14.5223 195.195 15.8677H196.643C196.762 15.2283 197.353 14.8087 198.164 14.8087C199.147 14.8087 199.698 15.2683 199.698 16.1141V16.6869L197.692 16.8068C195.826 16.92 194.816 17.686 194.816 19.0181C194.816 20.3634 195.859 21.2559 197.353 21.2559ZM197.78 20.0238C196.923 20.0238 196.379 19.6109 196.379 18.9781C196.379 18.3254 196.904 17.9458 197.906 17.8858L199.693 17.7726V18.3587C199.693 19.3311 198.869 20.0238 197.78 20.0238ZM206.177 21.5823C205.533 23.4006 204.796 24 203.229 24C203.109 24 202.711 23.9867 202.618 23.96V22.7146C202.717 22.7279 202.963 22.7412 203.089 22.7412C203.8 22.7412 204.198 22.4415 204.444 21.6622L204.59 21.2027L201.867 13.6432H203.547L205.44 19.7773H205.473L207.366 13.6432H209L206.177 21.5823ZM188.73 12.1512H190.583C191.978 12.1512 192.775 12.8972 192.775 14.2093C192.775 15.5214 191.978 16.274 190.577 16.274H188.73V12.1512Z" fill="#262A2C"/>
</svg>
