<svg width="48" height="34" viewBox="0 0 48 34" fill="none" xmlns="http://www.w3.org/2000/svg">
<path fill-rule="evenodd" clip-rule="evenodd" d="M13.7399 21.6565H11.6399C11.4962 21.6565 11.374 21.7631 11.3515 21.9079L10.5022 27.4046C10.4853 27.5131 10.5676 27.6109 10.6754 27.6109H11.6779C11.8216 27.6109 11.9439 27.5043 11.9663 27.3592L12.1954 25.8767C12.2175 25.7315 12.34 25.625 12.4834 25.625H13.1482C14.5315 25.625 15.3298 24.9417 15.5384 23.5877C15.6323 22.9953 15.5424 22.5298 15.2705 22.2038C14.9721 21.8459 14.4427 21.6565 13.7399 21.6565ZM13.9821 23.6641C13.8673 24.4333 13.2916 24.4333 12.7349 24.4333H12.418L12.6403 22.9967C12.6535 22.91 12.7272 22.846 12.8132 22.846H12.9584C13.3376 22.846 13.6954 22.846 13.8803 23.0667C13.9904 23.1984 14.0242 23.3939 13.9821 23.6641ZM20.0172 23.6395H19.0116C18.9259 23.6395 18.8519 23.7034 18.8387 23.7903L18.7942 24.0774L18.7238 23.9734C18.5061 23.6508 18.0207 23.543 17.5362 23.543C16.4248 23.543 15.4757 24.4021 15.2909 25.6073C15.1948 26.2084 15.3314 26.7832 15.6654 27.1841C15.9719 27.5527 16.4105 27.7063 16.9321 27.7063C17.8275 27.7063 18.3241 27.1186 18.3241 27.1186L18.2792 27.4039C18.2623 27.513 18.3446 27.6107 18.4517 27.6107H19.3576C19.5017 27.6107 19.6232 27.5041 19.6459 27.3591L20.1894 23.8457C20.2066 23.7377 20.1246 23.6395 20.0172 23.6395ZM18.6154 25.6374C18.5184 26.2238 18.0624 26.6174 17.4809 26.6174C17.1889 26.6174 16.9554 26.5219 16.8056 26.3407C16.657 26.1608 16.6005 25.9047 16.6478 25.6195C16.7384 25.038 17.2021 24.6316 17.7748 24.6316C18.0602 24.6316 18.2924 24.7283 18.4453 24.9111C18.5985 25.0957 18.6593 25.3533 18.6154 25.6374ZM24.3625 23.6393H25.3731C25.5146 23.6393 25.5972 23.8013 25.5167 23.9198L22.1557 28.8721C22.1012 28.9523 22.0116 29 21.9158 29H20.9065C20.7644 29 20.6814 28.8367 20.7637 28.7179L21.8102 27.21L20.6972 23.8756C20.6587 23.7597 20.7425 23.6393 20.8633 23.6393H21.8563C21.9853 23.6393 22.0991 23.7258 22.1363 23.8518L22.7271 25.8657L24.1209 23.77C24.1755 23.6882 24.2661 23.6393 24.3625 23.6393Z" fill="#253B80"/>
<path fill-rule="evenodd" clip-rule="evenodd" d="M35.3208 27.4046L36.1826 21.8073C36.1958 21.7204 36.2696 21.6565 36.3552 21.6562H37.3255C37.4326 21.6562 37.5149 21.7542 37.498 21.8627L36.6481 27.3592C36.6259 27.5043 36.5037 27.6109 36.3598 27.6109H35.4933C35.3861 27.6109 35.3039 27.5131 35.3208 27.4046ZM28.7204 21.6565H26.62C26.4767 21.6565 26.3545 21.7631 26.332 21.9078L25.4827 27.4046C25.4658 27.5131 25.548 27.6109 25.6553 27.6109H26.733C26.8332 27.6109 26.9189 27.5363 26.9345 27.4348L27.1755 25.8767C27.1977 25.7315 27.3202 25.625 27.4635 25.625H28.128C29.5116 25.625 30.3098 24.9417 30.5185 23.5877C30.6127 22.9953 30.5222 22.5298 30.2505 22.2037C29.9523 21.8459 29.4232 21.6565 28.7204 21.6565ZM28.9627 23.6641C28.8482 24.4333 28.2724 24.4333 27.7153 24.4333H27.3987L27.6214 22.9967C27.6346 22.91 27.7077 22.846 27.7939 22.846H27.9391C28.3181 22.846 28.6762 22.846 28.8609 23.0666C28.9712 23.1983 29.0047 23.3939 28.9627 23.6641ZM34.9972 23.6394H33.9923C33.9059 23.6394 33.8326 23.7034 33.8196 23.7903L33.7751 24.0773L33.7045 23.9733C33.4868 23.6508 33.0017 23.543 32.5171 23.543C31.4058 23.543 30.457 24.4021 30.2721 25.6073C30.1763 26.2084 30.3123 26.7832 30.6464 27.1841C30.9535 27.5527 31.3914 27.7063 31.9131 27.7063C32.8085 27.7063 33.3049 27.1186 33.3049 27.1186L33.2602 27.4039C33.2433 27.513 33.3255 27.6107 33.4334 27.6107H34.3389C34.4822 27.6107 34.6044 27.5041 34.6269 27.3591L35.1707 23.8457C35.1873 23.7376 35.1051 23.6394 34.9972 23.6394ZM33.5955 25.6373C33.4991 26.2238 33.0425 26.6174 32.4609 26.6174C32.1694 26.6174 31.9355 26.5218 31.7856 26.3407C31.637 26.1608 31.5811 25.9047 31.6279 25.6195C31.719 25.038 32.1821 24.6316 32.7547 24.6316C33.0404 24.6316 33.2724 24.7283 33.4254 24.9111C33.5792 25.0957 33.64 25.3533 33.5955 25.6373Z" fill="#179BD7"/>
<path d="M21.5122 19.69L21.7704 18.0161L21.1953 18.0025H18.4492L20.3576 5.65073C20.3634 5.61343 20.3828 5.57867 20.4109 5.55398C20.439 5.52929 20.4751 5.51569 20.5126 5.51569H25.1429C26.6802 5.51569 27.7409 5.8422 28.2948 6.48667C28.5544 6.78901 28.7198 7.10494 28.7998 7.45262C28.8837 7.81745 28.8852 8.2533 28.8033 8.78491L28.7973 8.82371V9.16432L29.057 9.31449C29.2757 9.4329 29.4494 9.56844 29.5827 9.72365C29.8049 9.98214 29.9486 10.3107 30.0093 10.7002C30.0719 11.1008 30.0512 11.5774 29.9486 12.1171C29.8301 12.7379 29.6385 13.2786 29.3799 13.721C29.1419 14.1286 28.8388 14.4667 28.479 14.7288C28.1354 14.9777 27.7271 15.1667 27.2656 15.2876C26.8183 15.4064 26.3084 15.4665 25.7491 15.4665H25.3888C25.1311 15.4665 24.8808 15.5612 24.6844 15.7311C24.4874 15.9044 24.357 16.1411 24.3171 16.4002L24.2899 16.5509L23.8338 19.501L23.813 19.6094C23.8076 19.6437 23.7983 19.6609 23.7845 19.6725C23.7721 19.6829 23.7543 19.69 23.737 19.69H21.5122Z" fill="#253B80"/>
<path d="M29.2992 8.86322C29.2854 8.95341 29.2696 9.04562 29.2519 9.14035C28.6411 12.3405 26.5521 13.4461 23.8839 13.4461H22.5255C22.1992 13.4461 21.9242 13.6879 21.8734 14.0165L21.1778 18.5192L20.9808 19.7955C20.9477 20.0112 21.1107 20.2057 21.3239 20.2057H23.7334C24.0188 20.2057 24.2611 19.9941 24.306 19.7069L24.3297 19.5819L24.7834 16.6432L24.8125 16.482C24.8569 16.1938 25.0997 15.9822 25.3851 15.9822H25.7454C28.0798 15.9822 29.9074 15.0147 30.4415 12.2151C30.6646 11.0455 30.5491 10.069 29.9587 9.38222C29.78 9.17512 29.5584 9.00329 29.2992 8.86322Z" fill="#179BD7"/>
<path d="M28.666 8.60342C28.5728 8.5757 28.4764 8.55051 28.3777 8.52784C28.2785 8.50567 28.1767 8.48602 28.0721 8.46889C27.7058 8.40842 27.3045 8.3797 26.8745 8.3797H23.2453C23.1559 8.3797 23.0711 8.40035 22.9951 8.43765C22.8277 8.51977 22.7034 8.68153 22.6732 8.87955L21.9011 13.8711L21.8789 14.0167C21.9298 13.6881 22.2047 13.4463 22.531 13.4463H23.8895C26.5577 13.4463 28.6468 12.3403 29.2574 9.14057C29.2756 9.04584 29.2909 8.95363 29.3047 8.86344C29.1503 8.77979 28.9829 8.70823 28.8027 8.64726C28.7583 8.63214 28.7124 8.61754 28.666 8.60342Z" fill="#222D65"/>
<path d="M22.6716 8.87943C22.7017 8.68139 22.8262 8.51965 22.9934 8.43801C23.07 8.40072 23.1544 8.38007 23.2437 8.38007H26.873C27.303 8.38007 27.7043 8.40879 28.0705 8.46926C28.1752 8.48639 28.277 8.50604 28.3761 8.52821C28.4749 8.55089 28.5711 8.57609 28.6645 8.60379C28.7108 8.6179 28.7567 8.63251 28.8016 8.64713C28.9818 8.70809 29.1492 8.78016 29.3036 8.8633C29.4854 7.68067 29.3022 6.87546 28.6758 6.14633C27.9852 5.34365 26.7387 5 25.1438 5H20.5134C20.1875 5 19.9097 5.24185 19.8593 5.5709L17.9307 18.0497C17.8926 18.2965 18.0792 18.5193 18.3231 18.5193H21.1818L21.8996 13.8709L22.6716 8.87943Z" fill="#253B80"/>
</svg>
