<svg width="65" height="40" viewBox="0 0 65 40" fill="none" xmlns="http://www.w3.org/2000/svg">
<rect width="65" height="39.7153" rx="4" fill="white"/>
<path d="M39.8832 14.5176C39.8631 14.6464 39.8401 14.7781 39.8142 14.9134C38.9238 19.4834 35.8784 21.0622 31.9885 21.0622H30.0081C29.5325 21.0622 29.1316 21.4076 29.0575 21.8767L27.7563 30.1295C27.708 30.4375 27.9456 30.7153 28.2564 30.7153H31.7692C32.1851 30.7153 32.5383 30.4131 32.6038 30.003L32.6384 29.8244L33.2999 25.6278L33.3423 25.3977C33.407 24.9861 33.761 24.6839 34.177 24.6839H34.7023C38.1055 24.6839 40.7698 23.3023 41.5485 19.3043C41.8738 17.6341 41.7053 16.2396 40.8446 15.2588C40.5842 14.963 40.261 14.7177 39.8832 14.5176Z" fill="#179BD7"/>
<path d="M38.9511 14.1452C38.8152 14.1056 38.6747 14.0696 38.5308 14.0373C38.3862 14.0056 38.2378 13.9775 38.0854 13.9531C37.5513 13.8667 36.9663 13.8257 36.3394 13.8257H31.0486C30.9183 13.8257 30.7946 13.8552 30.6838 13.9085C30.4398 14.0257 30.2585 14.2567 30.2146 14.5395L29.0889 21.6676L29.0566 21.8756C29.1307 21.4064 29.5316 21.061 30.0072 21.061H31.9876C35.8775 21.061 38.9231 19.4816 39.8133 14.9123C39.8398 14.777 39.8622 14.6453 39.8823 14.5165C39.6571 14.3971 39.413 14.2949 39.1504 14.2078C39.0857 14.1862 39.0188 14.1654 38.9511 14.1452Z" fill="#222D65"/>
<path d="M30.2174 14.54C30.2613 14.2572 30.4428 14.0262 30.6866 13.9097C30.7983 13.8564 30.9214 13.8269 31.0515 13.8269H36.3425C36.9694 13.8269 37.5544 13.8679 38.0882 13.9543C38.2409 13.9787 38.3892 14.0068 38.5338 14.0384C38.6778 14.0708 38.818 14.1068 38.9541 14.1464C39.0217 14.1665 39.0886 14.1874 39.1541 14.2083C39.4167 14.2953 39.6608 14.3982 39.8859 14.517C40.1509 12.8281 39.8839 11.6783 38.9707 10.637C37.9639 9.4907 36.1467 9 33.8216 9H27.0711C26.5961 9 26.1911 9.3454 26.1175 9.8153L23.306 27.6355C23.2505 27.9881 23.5225 28.3063 23.878 28.3063H28.0456L30.2174 14.54Z" fill="#253B80"/>
</svg>
